<svg xmlns="http://www.w3.org/2000/svg" width="159" height="22" viewBox="0 0 159 22" fill="none"> <g clip-path="url(#clip0_541_27)"> <path d="M30.52 0.98999L23.24 21.81H16.35L15.73 20.23L15.18 21.81H8.28998L0.0999756 0.98999H5.46997L11.62 16.62L12.89 13.01L8.15998 0.98999H13.53L19.68 16.62L23.29 6.28999H19.95V0.98999H30.52Z" fill="black"/> <path d="M26.7 21.7299L33.77 0.859863H39.1699L31.9 21.7099L26.7 21.7299Z" fill="black"/> <path d="M56.8499 13.79V0.98999H62.0399V21.81H56.8499L45.9999 9.00999V21.8H40.8099V0.98999H45.9999L56.8499 13.79Z" fill="black"/> <path d="M78.01 0.719971C81.65 0.719971 84.8 2.79997 86.25 5.77997L80.95 7.14997C80.32 6.38997 79.35 5.90997 78.27 5.90997H73.86C71.97 5.90997 70.42 7.39997 70.42 9.21997V13.05C70.42 14.87 71.97 16.36 73.86 16.36H78.27C79.35 16.36 80.32 15.87 80.95 15.12L86.25 16.49C84.8 19.47 81.64 21.55 78.01 21.55H74.11C69.11 21.55 65.02 17.62 65.02 12.81V9.47997C65.02 4.66997 69.11 0.739971 74.11 0.739971H78.01V0.719971Z" fill="black"/> <path d="M104.51 0.820068C103.9 1.73007 102.83 2.34007 101.62 2.34007H98.06C96.85 2.34007 95.78 1.73007 95.17 0.820068H89.47C90.43 4.66007 94.04 7.53007 98.31 7.53007H101.36C105.63 7.53007 109.24 4.66007 110.2 0.820068H104.51Z" fill="#7F23CC"/> <path d="M101.37 9.11987H98.32C93.32 9.11987 89.23 13.0499 89.23 17.8599V21.1899C89.23 21.4099 89.24 21.6199 89.25 21.8399H94.65C94.63 21.7099 94.62 21.5699 94.62 21.4399V17.6099C94.62 15.7899 96.17 14.2999 98.06 14.2999H101.62C103.51 14.2999 105.06 15.7899 105.06 17.6099V21.4399C105.06 21.5699 105.05 21.7099 105.03 21.8399H110.43C110.45 21.6299 110.45 21.4099 110.45 21.1899V17.8599C110.46 13.0499 106.37 9.11987 101.37 9.11987Z" fill="#7F23CC"/> <path d="M113.44 0.98999H126.44C131.04 1.40999 134.67 5.19999 134.67 9.72999V13.06C134.67 17.59 131.04 21.38 126.44 21.8C122.1 21.8 117.77 21.8 113.44 21.8V0.98999ZM118.62 6.17999V16.62H126.44C128.05 16.34 129.27 14.93 129.27 13.31V9.47999C129.27 7.84999 128.03 6.44999 126.44 6.16999H118.62V6.17999Z" fill="black"/> <path d="M153.62 21.81H137.64V0.98999H158.87V6.17999H142.83V8.80999H156.25V14H142.83V16.63H153.62V21.81Z" fill="black"/> </g> <defs> <clipPath id="clip0_541_27"> <rect width="159" height="22" fill="white"/> </clipPath> </defs> </svg>